<?xml version="1.0" encoding="utf-8"?>

<!-- Uploaded to: SVG Repo, www.svgrepo.com, Generator: SVG Repo Mixer Tools -->
<svg version="1.1" id="Icons" xmlns="http://www.w3.org/2000/svg" xmlns:xlink="http://www.w3.org/1999/xlink" 
	 viewBox="0 0 32 32" xml:space="preserve">
<style type="text/css">
	.st0{fill:none;stroke:#000000;stroke-width:2;stroke-linecap:round;stroke-linejoin:round;stroke-miterlimit:10;}
</style>
<circle class="st0" cx="16" cy="16" r="3"/>
<circle class="st0" cx="25" cy="7" r="2"/>
<circle class="st0" cx="15" cy="24" r="2"/>
<path class="st0" d="M13,23.4c-2.9-1.2-5-4.1-5-7.4c0-4.4,3.6-8,8-8s8,3.6,8,8c0,4.1-3.1,7.5-7,7.9"/>
<path class="st0" d="M26.5,8.3c1.6,2.2,2.5,4.8,2.5,7.7c0,7.2-5.8,13-13,13S3,23.2,3,16S8.8,3,16,3c2.9,0,5.5,0.9,7.7,2.5"/>
</svg>